<?xml version="1.0" encoding="utf-8"?>
<svg viewBox="132.14 44.905 46.8281 44.5074" width="46.828" height="44.507" xmlns="http://www.w3.org/2000/svg">
  <path d="M 135.577 89.329 L 135.577 51.79 L 139.933 51.79 L 139.933 89.329 Z" style="fill: rgb(248, 113, 113); stroke: rgb(248, 113, 113);"/>
  <path d="M 146.775 89.329 L 146.775 51.79 L 151.13 51.79 L 151.13 89.329 Z" style="fill: rgb(129, 140, 248); stroke: rgb(129, 140, 248);"/>
  <path d="M 156.136 70.247 Q 156.136 67.513 157.484 64.954 Q 158.831 62.395 161.302 61.048 Q 163.773 59.7 166.82 59.7 Q 171.527 59.7 174.534 62.757 Q 177.542 65.813 177.542 70.481 Q 177.542 75.188 174.505 78.284 Q 171.468 81.38 166.859 81.38 Q 164.007 81.38 161.419 80.091 Q 158.831 78.802 157.484 76.311 Q 156.136 73.821 156.136 70.247 Z M 161.761 70.54 Q 161.761 73.626 163.226 75.266 Q 164.691 76.907 166.839 76.907 Q 168.987 76.907 170.443 75.266 Q 171.898 73.626 171.898 70.501 Q 171.898 67.454 170.443 65.813 Q 168.987 64.173 166.839 64.173 Q 164.691 64.173 163.226 65.813 Q 161.761 67.454 161.761 70.54 Z" style="fill: rgb(134, 239, 172); stroke: rgb(134, 239, 172);"/>
</svg>